<mxfile host="app.diagrams.net" modified="2023-11-09T02:14:47.923Z" agent="Mozilla/5.0 (Windows NT 10.0; Win64; x64) AppleWebKit/537.36 (KHTML, like Gecko) Chrome/119.0.0.0 Safari/537.36 Edg/119.0.0.0" etag="kwj4oQmcctgUGZFApaJu" version="22.0.8" type="github">
  <diagram name="第 1 页" id="QulgkRsqPVAeYC6WXrVD">
    <mxGraphModel dx="1427" dy="738" grid="1" gridSize="10" guides="1" tooltips="1" connect="1" arrows="1" fold="1" page="1" pageScale="1" pageWidth="1169" pageHeight="827" math="0" shadow="0">
      <root>
        <mxCell id="0" />
        <mxCell id="1" parent="0" />
        <mxCell id="1QKGybhPdsCrPBbOhNYo-73" style="edgeStyle=orthogonalEdgeStyle;rounded=0;orthogonalLoop=1;jettySize=auto;html=1;" parent="1" source="1QKGybhPdsCrPBbOhNYo-1" edge="1">
          <mxGeometry relative="1" as="geometry">
            <mxPoint x="70" y="190" as="targetPoint" />
          </mxGeometry>
        </mxCell>
        <mxCell id="1QKGybhPdsCrPBbOhNYo-1" value="" style="verticalLabelPosition=bottom;align=center;outlineConnect=0;dashed=0;html=1;verticalAlign=top;shape=mxgraph.pid.flow_sensors.averging_pitot_tube;direction=west;" parent="1" vertex="1">
          <mxGeometry x="141.72" y="53" width="50" height="50" as="geometry" />
        </mxCell>
        <mxCell id="1QKGybhPdsCrPBbOhNYo-5" value="" style="shape=mxgraph.pid.pumps.vacuum_pump;html=1;pointerEvents=1;align=center;verticalLabelPosition=bottom;verticalAlign=top;dashed=0;direction=west;" parent="1" vertex="1">
          <mxGeometry x="491.72" y="40" width="99" height="49" as="geometry" />
        </mxCell>
        <mxCell id="1QKGybhPdsCrPBbOhNYo-50" style="edgeStyle=orthogonalEdgeStyle;rounded=0;orthogonalLoop=1;jettySize=auto;html=1;" parent="1" source="1QKGybhPdsCrPBbOhNYo-6" edge="1">
          <mxGeometry relative="1" as="geometry">
            <mxPoint x="451.72" y="113.5" as="targetPoint" />
          </mxGeometry>
        </mxCell>
        <mxCell id="1QKGybhPdsCrPBbOhNYo-6" value="" style="shape=mxgraph.pid.pumps.vacuum_pump;html=1;pointerEvents=1;align=center;verticalLabelPosition=bottom;verticalAlign=top;dashed=0;direction=west;" parent="1" vertex="1">
          <mxGeometry x="491.72" y="89" width="99" height="49" as="geometry" />
        </mxCell>
        <mxCell id="1QKGybhPdsCrPBbOhNYo-14" value="" style="verticalLabelPosition=bottom;html=1;verticalAlign=top;align=center;shape=mxgraph.floorplan.office_chair;shadow=0;direction=south;" parent="1" vertex="1">
          <mxGeometry x="800" y="208" width="43" height="40" as="geometry" />
        </mxCell>
        <mxCell id="1QKGybhPdsCrPBbOhNYo-15" value="" style="verticalLabelPosition=bottom;html=1;verticalAlign=top;align=center;shape=mxgraph.floorplan.office_chair;shadow=0;direction=north;" parent="1" vertex="1">
          <mxGeometry x="853" y="208" width="40" height="40" as="geometry" />
        </mxCell>
        <mxCell id="1QKGybhPdsCrPBbOhNYo-18" value="" style="verticalLabelPosition=bottom;html=1;verticalAlign=top;align=center;shape=mxgraph.floorplan.office_chair;shadow=0;direction=south;" parent="1" vertex="1">
          <mxGeometry x="800" y="166" width="43" height="40" as="geometry" />
        </mxCell>
        <mxCell id="1QKGybhPdsCrPBbOhNYo-19" value="" style="verticalLabelPosition=bottom;html=1;verticalAlign=top;align=center;shape=mxgraph.floorplan.office_chair;shadow=0;direction=north;" parent="1" vertex="1">
          <mxGeometry x="850" y="168" width="43" height="40" as="geometry" />
        </mxCell>
        <mxCell id="1QKGybhPdsCrPBbOhNYo-20" value="" style="verticalLabelPosition=bottom;html=1;verticalAlign=top;align=center;shape=mxgraph.floorplan.office_chair;shadow=0;direction=south;" parent="1" vertex="1">
          <mxGeometry x="800" y="128" width="43" height="40" as="geometry" />
        </mxCell>
        <mxCell id="1QKGybhPdsCrPBbOhNYo-21" value="" style="verticalLabelPosition=bottom;html=1;verticalAlign=top;align=center;shape=mxgraph.floorplan.office_chair;shadow=0;direction=north;" parent="1" vertex="1">
          <mxGeometry x="850" y="128" width="43" height="40" as="geometry" />
        </mxCell>
        <mxCell id="1QKGybhPdsCrPBbOhNYo-22" value="" style="verticalLabelPosition=bottom;html=1;verticalAlign=top;align=center;shape=mxgraph.floorplan.office_chair;shadow=0;direction=south;" parent="1" vertex="1">
          <mxGeometry x="800" y="88" width="43" height="40" as="geometry" />
        </mxCell>
        <mxCell id="1QKGybhPdsCrPBbOhNYo-23" value="" style="verticalLabelPosition=bottom;html=1;verticalAlign=top;align=center;shape=mxgraph.floorplan.office_chair;shadow=0;direction=north;" parent="1" vertex="1">
          <mxGeometry x="850" y="88" width="43" height="40" as="geometry" />
        </mxCell>
        <mxCell id="1QKGybhPdsCrPBbOhNYo-32" value="" style="shape=ellipse;shadow=0;html=1;direction=south;" parent="1" vertex="1">
          <mxGeometry x="820" y="88" width="50" height="170" as="geometry" />
        </mxCell>
        <mxCell id="1QKGybhPdsCrPBbOhNYo-33" value="" style="verticalLabelPosition=bottom;outlineConnect=0;align=center;dashed=0;html=1;verticalAlign=top;shape=mxgraph.pid.misc.conveyor2;flipH=1;" parent="1" vertex="1">
          <mxGeometry x="969.14" y="89" width="80" height="40" as="geometry" />
        </mxCell>
        <mxCell id="1QKGybhPdsCrPBbOhNYo-34" value="" style="verticalLabelPosition=bottom;outlineConnect=0;align=center;dashed=0;html=1;verticalAlign=top;shape=mxgraph.pid.misc.conveyor2;flipH=1;" parent="1" vertex="1">
          <mxGeometry x="969.14" y="139" width="80" height="40" as="geometry" />
        </mxCell>
        <mxCell id="1QKGybhPdsCrPBbOhNYo-35" value="" style="verticalLabelPosition=bottom;outlineConnect=0;align=center;dashed=0;html=1;verticalAlign=top;shape=mxgraph.pid.misc.conveyor2;flipH=1;" parent="1" vertex="1">
          <mxGeometry x="969.14" y="189" width="80" height="40" as="geometry" />
        </mxCell>
        <mxCell id="1QKGybhPdsCrPBbOhNYo-36" value="" style="verticalLabelPosition=bottom;outlineConnect=0;align=center;dashed=0;html=1;verticalAlign=top;shape=mxgraph.pid.misc.conveyor2;flipH=1;" parent="1" vertex="1">
          <mxGeometry x="969.14" y="239" width="80" height="40" as="geometry" />
        </mxCell>
        <mxCell id="1QKGybhPdsCrPBbOhNYo-38" value="气体温湿度传感器" style="label;whiteSpace=wrap;html=1;image=img/clipart/Gear_128x128.png" parent="1" vertex="1">
          <mxGeometry x="641.72" y="88" width="100" height="50" as="geometry" />
        </mxCell>
        <mxCell id="1QKGybhPdsCrPBbOhNYo-43" value="" style="endArrow=classic;html=1;rounded=0;" parent="1" edge="1">
          <mxGeometry width="50" height="50" relative="1" as="geometry">
            <mxPoint x="800" y="113" as="sourcePoint" />
            <mxPoint x="741.72" y="112.5" as="targetPoint" />
          </mxGeometry>
        </mxCell>
        <mxCell id="1QKGybhPdsCrPBbOhNYo-47" style="edgeStyle=orthogonalEdgeStyle;rounded=0;orthogonalLoop=1;jettySize=auto;html=1;entryX=0;entryY=0.5;entryDx=0;entryDy=0;entryPerimeter=0;" parent="1" source="1QKGybhPdsCrPBbOhNYo-38" target="1QKGybhPdsCrPBbOhNYo-6" edge="1">
          <mxGeometry relative="1" as="geometry" />
        </mxCell>
        <mxCell id="1QKGybhPdsCrPBbOhNYo-55" value="" style="shape=sortShape;perimeter=rhombusPerimeter;whiteSpace=wrap;html=1;direction=west;rotation=90;" parent="1" vertex="1">
          <mxGeometry x="301.72" y="43" width="60" height="70" as="geometry" />
        </mxCell>
        <mxCell id="1QKGybhPdsCrPBbOhNYo-58" value="" style="endArrow=classic;html=1;rounded=0;" parent="1" edge="1">
          <mxGeometry width="50" height="50" relative="1" as="geometry">
            <mxPoint x="431.72" y="79.5" as="sourcePoint" />
            <mxPoint x="371.72" y="78.5" as="targetPoint" />
            <Array as="points">
              <mxPoint x="411.72" y="78.5" />
            </Array>
          </mxGeometry>
        </mxCell>
        <mxCell id="1QKGybhPdsCrPBbOhNYo-59" value="EV-3M" style="label;whiteSpace=wrap;html=1;image=img/clipart/Gear_128x128.png" parent="1" vertex="1">
          <mxGeometry x="471.72" y="189" width="100" height="50" as="geometry" />
        </mxCell>
        <mxCell id="1QKGybhPdsCrPBbOhNYo-60" value="" style="verticalLabelPosition=bottom;align=center;dashed=0;html=1;verticalAlign=top;shape=mxgraph.pid.piping.flange_in;pointerEvents=1;direction=west;" parent="1" vertex="1">
          <mxGeometry x="431.72" y="78.5" width="25" height="70" as="geometry" />
        </mxCell>
        <mxCell id="1QKGybhPdsCrPBbOhNYo-62" value="" style="endArrow=classic;html=1;rounded=0;" parent="1" edge="1">
          <mxGeometry width="50" height="50" relative="1" as="geometry">
            <mxPoint x="970" y="112" as="sourcePoint" />
            <mxPoint x="893" y="112" as="targetPoint" />
          </mxGeometry>
        </mxCell>
        <mxCell id="1QKGybhPdsCrPBbOhNYo-63" value="" style="endArrow=classic;html=1;rounded=0;" parent="1" edge="1">
          <mxGeometry width="50" height="50" relative="1" as="geometry">
            <mxPoint x="291.72" y="79" as="sourcePoint" />
            <mxPoint x="191.72" y="78.5" as="targetPoint" />
          </mxGeometry>
        </mxCell>
        <mxCell id="1QKGybhPdsCrPBbOhNYo-96" style="edgeStyle=orthogonalEdgeStyle;rounded=0;orthogonalLoop=1;jettySize=auto;html=1;" parent="1" source="1QKGybhPdsCrPBbOhNYo-64" edge="1">
          <mxGeometry relative="1" as="geometry">
            <mxPoint x="520" y="240" as="targetPoint" />
            <Array as="points">
              <mxPoint x="520" y="348" />
            </Array>
          </mxGeometry>
        </mxCell>
        <mxCell id="1QKGybhPdsCrPBbOhNYo-64" value="&lt;b&gt;&lt;font color=&quot;#3333ff&quot; style=&quot;font-size: 14px;&quot;&gt;CO2 分析器&lt;/font&gt;&lt;/b&gt;" style="shape=process;whiteSpace=wrap;html=1;backgroundOutline=1;" parent="1" vertex="1">
          <mxGeometry x="351.72" y="318" width="120" height="60" as="geometry" />
        </mxCell>
        <mxCell id="1QKGybhPdsCrPBbOhNYo-71" value="废气出口" style="text;strokeColor=none;align=center;fillColor=none;html=1;verticalAlign=middle;whiteSpace=wrap;rounded=0;fontStyle=1;fontSize=14;" parent="1" vertex="1">
          <mxGeometry x="590.72" y="335.5" width="80" height="25" as="geometry" />
        </mxCell>
        <mxCell id="1QKGybhPdsCrPBbOhNYo-74" value="" style="verticalLabelPosition=bottom;align=center;dashed=0;html=1;verticalAlign=top;shape=mxgraph.pid.piping.flange_in;pointerEvents=1;direction=east;" parent="1" vertex="1">
          <mxGeometry x="121.72" y="360.5" width="20" height="80" as="geometry" />
        </mxCell>
        <mxCell id="1QKGybhPdsCrPBbOhNYo-76" style="edgeStyle=orthogonalEdgeStyle;rounded=0;orthogonalLoop=1;jettySize=auto;html=1;" parent="1" source="yiKaTHYhzg04l1ZjCBSl-12" edge="1">
          <mxGeometry relative="1" as="geometry">
            <mxPoint x="80.0000000000001" y="213" as="sourcePoint" />
            <mxPoint x="131.32999999999998" y="401" as="targetPoint" />
            <Array as="points">
              <mxPoint x="70" y="401" />
            </Array>
          </mxGeometry>
        </mxCell>
        <mxCell id="1QKGybhPdsCrPBbOhNYo-78" value="" style="endArrow=classic;html=1;rounded=0;" parent="1" edge="1">
          <mxGeometry width="50" height="50" relative="1" as="geometry">
            <mxPoint x="141.72" y="439.5" as="sourcePoint" />
            <mxPoint x="181.72" y="439.5" as="targetPoint" />
          </mxGeometry>
        </mxCell>
        <mxCell id="1QKGybhPdsCrPBbOhNYo-81" value="" style="shape=mxgraph.pid.heat_exchangers.single_pass_heat_exchanger;html=1;pointerEvents=1;align=center;verticalLabelPosition=bottom;verticalAlign=top;dashed=0;" parent="1" vertex="1">
          <mxGeometry x="181.72" y="430" width="60" height="20" as="geometry" />
        </mxCell>
        <mxCell id="1QKGybhPdsCrPBbOhNYo-84" value="" style="edgeStyle=elbowEdgeStyle;elbow=horizontal;endArrow=classic;html=1;curved=0;rounded=0;endSize=8;startSize=8;exitX=1;exitY=0;exitDx=0;exitDy=0;exitPerimeter=0;" parent="1" source="1QKGybhPdsCrPBbOhNYo-74" edge="1">
          <mxGeometry width="50" height="50" relative="1" as="geometry">
            <mxPoint x="146.72" y="388" as="sourcePoint" />
            <mxPoint x="171.72" y="348" as="targetPoint" />
            <Array as="points">
              <mxPoint x="141.72" y="363" />
            </Array>
          </mxGeometry>
        </mxCell>
        <mxCell id="1QKGybhPdsCrPBbOhNYo-85" value="" style="verticalLabelPosition=bottom;aspect=fixed;html=1;verticalAlign=top;fillColor=strokeColor;align=center;outlineConnect=0;shape=mxgraph.fluid_power.x10200;points=[[0,0.31,0],[0,0.48,0],[0,0.65,0],[1,0.31,0],[1,0.48,0],[1,0.65,0],[0.43,1,0],[0.715,1,0]]" parent="1" vertex="1">
          <mxGeometry x="171.72" y="321.07" width="64.82" height="53.86" as="geometry" />
        </mxCell>
        <mxCell id="1QKGybhPdsCrPBbOhNYo-86" value="" style="endArrow=classic;html=1;rounded=0;exitX=1;exitY=0.48;exitDx=0;exitDy=0;exitPerimeter=0;" parent="1" source="1QKGybhPdsCrPBbOhNYo-85" edge="1">
          <mxGeometry width="50" height="50" relative="1" as="geometry">
            <mxPoint x="271.72" y="348" as="sourcePoint" />
            <mxPoint x="351.72" y="348" as="targetPoint" />
          </mxGeometry>
        </mxCell>
        <mxCell id="1QKGybhPdsCrPBbOhNYo-94" value="" style="endArrow=classic;html=1;rounded=0;" parent="1" edge="1">
          <mxGeometry width="50" height="50" relative="1" as="geometry">
            <mxPoint x="520.72" y="347.5" as="sourcePoint" />
            <mxPoint x="590.72" y="347.5" as="targetPoint" />
          </mxGeometry>
        </mxCell>
        <mxCell id="1QKGybhPdsCrPBbOhNYo-97" style="edgeStyle=orthogonalEdgeStyle;rounded=0;orthogonalLoop=1;jettySize=auto;html=1;entryX=1;entryY=0.079;entryDx=0;entryDy=0;entryPerimeter=0;exitX=0.498;exitY=-0.054;exitDx=0;exitDy=0;exitPerimeter=0;" parent="1" source="1QKGybhPdsCrPBbOhNYo-59" edge="1">
          <mxGeometry relative="1" as="geometry">
            <Array as="points">
              <mxPoint x="522" y="170" />
              <mxPoint x="432" y="170" />
            </Array>
            <mxPoint x="521.72" y="179.03" as="sourcePoint" />
            <mxPoint x="431.74" y="133.00000000000003" as="targetPoint" />
          </mxGeometry>
        </mxCell>
        <mxCell id="1QKGybhPdsCrPBbOhNYo-98" value="空气过滤器" style="text;strokeColor=none;align=center;fillColor=none;html=1;verticalAlign=middle;whiteSpace=wrap;rounded=0;fontStyle=1;fontSize=13;" parent="1" vertex="1">
          <mxGeometry x="301.72" y="118.5" width="70" height="30" as="geometry" />
        </mxCell>
        <mxCell id="1QKGybhPdsCrPBbOhNYo-100" value="" style="edgeStyle=segmentEdgeStyle;endArrow=classic;html=1;curved=0;rounded=0;endSize=8;startSize=8;" parent="1" edge="1">
          <mxGeometry width="50" height="50" relative="1" as="geometry">
            <mxPoint x="242" y="450" as="sourcePoint" />
            <mxPoint x="290" y="344.97" as="targetPoint" />
            <Array as="points">
              <mxPoint x="242" y="440" />
              <mxPoint x="290" y="440" />
            </Array>
          </mxGeometry>
        </mxCell>
        <mxCell id="yiKaTHYhzg04l1ZjCBSl-1" value="&lt;font style=&quot;font-size: 13px;&quot;&gt;&lt;b&gt;电磁阀&lt;/b&gt;&lt;/font&gt;" style="text;strokeColor=none;align=center;fillColor=none;html=1;verticalAlign=middle;whiteSpace=wrap;rounded=0;" vertex="1" parent="1">
          <mxGeometry x="176.54" y="363" width="60" height="30" as="geometry" />
        </mxCell>
        <mxCell id="yiKaTHYhzg04l1ZjCBSl-2" value="数字流量计" style="text;strokeColor=none;align=center;fillColor=none;html=1;verticalAlign=middle;whiteSpace=wrap;rounded=0;fontStyle=1;fontSize=13;" vertex="1" parent="1">
          <mxGeometry x="70" y="238" width="78.28" height="22" as="geometry" />
        </mxCell>
        <mxCell id="yiKaTHYhzg04l1ZjCBSl-4" value="转子流量计" style="text;strokeColor=none;align=center;fillColor=none;html=1;verticalAlign=middle;whiteSpace=wrap;rounded=0;fontStyle=1;fontSize=13;" vertex="1" parent="1">
          <mxGeometry x="132.57999999999998" y="108" width="68.28" height="30" as="geometry" />
        </mxCell>
        <mxCell id="yiKaTHYhzg04l1ZjCBSl-5" value="流量控制阀" style="text;strokeColor=none;align=center;fillColor=none;html=1;verticalAlign=middle;whiteSpace=wrap;rounded=0;fontStyle=1;fontSize=13;" vertex="1" parent="1">
          <mxGeometry x="520" y="243" width="100" height="30" as="geometry" />
        </mxCell>
        <mxCell id="yiKaTHYhzg04l1ZjCBSl-6" value="双气泵" style="text;strokeColor=none;align=center;fillColor=none;html=1;verticalAlign=middle;whiteSpace=wrap;rounded=0;fontStyle=1;fontSize=13;" vertex="1" parent="1">
          <mxGeometry x="520" y="138" width="60" height="30" as="geometry" />
        </mxCell>
        <mxCell id="yiKaTHYhzg04l1ZjCBSl-9" value="4通道气路阀" style="text;strokeColor=none;align=center;fillColor=none;html=1;verticalAlign=middle;whiteSpace=wrap;rounded=0;fontStyle=1;fontSize=13;" vertex="1" parent="1">
          <mxGeometry x="808.28" y="264" width="90" height="30" as="geometry" />
        </mxCell>
        <mxCell id="yiKaTHYhzg04l1ZjCBSl-10" value="4通道叶室" style="text;strokeColor=none;align=center;fillColor=none;html=1;verticalAlign=middle;whiteSpace=wrap;rounded=0;fontStyle=1;fontSize=13;" vertex="1" parent="1">
          <mxGeometry x="959.9999999999999" y="295" width="98.28" height="30" as="geometry" />
        </mxCell>
        <mxCell id="yiKaTHYhzg04l1ZjCBSl-11" value="CO2吸收器" style="text;strokeColor=none;align=center;fillColor=none;html=1;verticalAlign=middle;whiteSpace=wrap;rounded=0;fontStyle=1;fontSize=13;" vertex="1" parent="1">
          <mxGeometry x="167.57999999999998" y="450" width="88.28" height="30" as="geometry" />
        </mxCell>
        <mxCell id="yiKaTHYhzg04l1ZjCBSl-12" value="" style="verticalLabelPosition=bottom;align=center;outlineConnect=0;dashed=0;html=1;verticalAlign=top;shape=mxgraph.pid.flow_sensors.turbine;" vertex="1" parent="1">
          <mxGeometry x="50" y="188" width="50" height="50" as="geometry" />
        </mxCell>
      </root>
    </mxGraphModel>
  </diagram>
</mxfile>
